<mxfile host="Electron" agent="Mozilla/5.0 (Windows NT 10.0; Win64; x64) AppleWebKit/537.36 (KHTML, like Gecko) draw.io/25.0.2 Chrome/128.0.6613.186 Electron/32.2.5 Safari/537.36" version="25.0.2">
  <diagram name="第 1 页" id="eL48i2S1bWo6p9PhwOPm">
    <mxGraphModel dx="1106" dy="810" grid="1" gridSize="10" guides="1" tooltips="1" connect="1" arrows="1" fold="1" page="1" pageScale="1" pageWidth="827" pageHeight="1169" math="0" shadow="0">
      <root>
        <mxCell id="0" />
        <mxCell id="1" parent="0" />
        <mxCell id="Aq2oGUDE9ACcBMB9Xu7W-10" value="" style="rounded=0;whiteSpace=wrap;html=1;" vertex="1" parent="1">
          <mxGeometry x="200" y="110" width="490" height="480" as="geometry" />
        </mxCell>
        <mxCell id="Aq2oGUDE9ACcBMB9Xu7W-11" value="" style="rounded=0;whiteSpace=wrap;html=1;" vertex="1" parent="1">
          <mxGeometry x="200" y="110" width="170" height="170" as="geometry" />
        </mxCell>
        <mxCell id="Aq2oGUDE9ACcBMB9Xu7W-15" value="" style="rounded=0;whiteSpace=wrap;html=1;" vertex="1" parent="1">
          <mxGeometry x="200" y="420" width="170" height="170" as="geometry" />
        </mxCell>
        <mxCell id="Aq2oGUDE9ACcBMB9Xu7W-16" value="" style="rounded=0;whiteSpace=wrap;html=1;" vertex="1" parent="1">
          <mxGeometry x="520" y="420" width="170" height="170" as="geometry" />
        </mxCell>
        <mxCell id="Aq2oGUDE9ACcBMB9Xu7W-17" value="" style="rounded=0;whiteSpace=wrap;html=1;" vertex="1" parent="1">
          <mxGeometry x="520" y="110" width="170" height="170" as="geometry" />
        </mxCell>
        <mxCell id="Aq2oGUDE9ACcBMB9Xu7W-18" value="红绿灯" style="ellipse;whiteSpace=wrap;html=1;aspect=fixed;fillColor=#fff2cc;strokeColor=#d6b656;" vertex="1" parent="1">
          <mxGeometry x="405" y="310" width="80" height="80" as="geometry" />
        </mxCell>
        <mxCell id="Aq2oGUDE9ACcBMB9Xu7W-19" value="" style="rounded=0;whiteSpace=wrap;html=1;" vertex="1" parent="1">
          <mxGeometry x="370" y="180" width="150" height="60" as="geometry" />
        </mxCell>
        <mxCell id="Aq2oGUDE9ACcBMB9Xu7W-20" value="" style="rounded=0;whiteSpace=wrap;html=1;" vertex="1" parent="1">
          <mxGeometry x="370" y="460" width="150" height="60" as="geometry" />
        </mxCell>
        <mxCell id="Aq2oGUDE9ACcBMB9Xu7W-22" value="" style="rounded=0;whiteSpace=wrap;html=1;rotation=90;" vertex="1" parent="1">
          <mxGeometry x="520" y="320" width="140" height="60" as="geometry" />
        </mxCell>
        <mxCell id="Aq2oGUDE9ACcBMB9Xu7W-23" value="" style="rounded=0;whiteSpace=wrap;html=1;rotation=90;" vertex="1" parent="1">
          <mxGeometry x="230" y="320" width="140" height="60" as="geometry" />
        </mxCell>
        <mxCell id="Aq2oGUDE9ACcBMB9Xu7W-24" value="" style="rounded=0;whiteSpace=wrap;html=1;strokeColor=default;fillColor=#030303;" vertex="1" parent="1">
          <mxGeometry x="385" y="180" width="20" height="60" as="geometry" />
        </mxCell>
        <mxCell id="Aq2oGUDE9ACcBMB9Xu7W-25" value="" style="rounded=0;whiteSpace=wrap;html=1;strokeColor=default;fillColor=#030303;" vertex="1" parent="1">
          <mxGeometry x="420" y="180" width="20" height="60" as="geometry" />
        </mxCell>
        <mxCell id="Aq2oGUDE9ACcBMB9Xu7W-26" value="" style="rounded=0;whiteSpace=wrap;html=1;strokeColor=default;fillColor=#030303;" vertex="1" parent="1">
          <mxGeometry x="460" y="180" width="20" height="60" as="geometry" />
        </mxCell>
        <mxCell id="Aq2oGUDE9ACcBMB9Xu7W-27" value="" style="rounded=0;whiteSpace=wrap;html=1;strokeColor=default;fillColor=#030303;" vertex="1" parent="1">
          <mxGeometry x="490" y="180" width="20" height="60" as="geometry" />
        </mxCell>
        <mxCell id="Aq2oGUDE9ACcBMB9Xu7W-28" value="" style="rounded=0;whiteSpace=wrap;html=1;strokeColor=default;fillColor=#030303;" vertex="1" parent="1">
          <mxGeometry x="382.5" y="460" width="20" height="60" as="geometry" />
        </mxCell>
        <mxCell id="Aq2oGUDE9ACcBMB9Xu7W-29" value="" style="rounded=0;whiteSpace=wrap;html=1;strokeColor=default;fillColor=#030303;" vertex="1" parent="1">
          <mxGeometry x="417.5" y="460" width="20" height="60" as="geometry" />
        </mxCell>
        <mxCell id="Aq2oGUDE9ACcBMB9Xu7W-30" value="" style="rounded=0;whiteSpace=wrap;html=1;strokeColor=default;fillColor=#030303;" vertex="1" parent="1">
          <mxGeometry x="457.5" y="460" width="20" height="60" as="geometry" />
        </mxCell>
        <mxCell id="Aq2oGUDE9ACcBMB9Xu7W-31" value="" style="rounded=0;whiteSpace=wrap;html=1;strokeColor=default;fillColor=#030303;" vertex="1" parent="1">
          <mxGeometry x="487.5" y="460" width="20" height="60" as="geometry" />
        </mxCell>
        <mxCell id="Aq2oGUDE9ACcBMB9Xu7W-32" value="机动车辆" style="rounded=0;whiteSpace=wrap;html=1;fillColor=#f8cecc;strokeColor=#b85450;" vertex="1" parent="1">
          <mxGeometry x="780" y="170" width="63" height="30" as="geometry" />
        </mxCell>
        <mxCell id="Aq2oGUDE9ACcBMB9Xu7W-34" value="行人" style="rounded=0;whiteSpace=wrap;html=1;fillColor=#dae8fc;strokeColor=#6c8ebf;" vertex="1" parent="1">
          <mxGeometry x="780" y="220" width="63" height="30" as="geometry" />
        </mxCell>
        <mxCell id="Aq2oGUDE9ACcBMB9Xu7W-36" value="红绿灯" style="ellipse;whiteSpace=wrap;html=1;aspect=fixed;fillColor=#fff2cc;strokeColor=#d6b656;" vertex="1" parent="1">
          <mxGeometry x="780" y="280" width="60" height="60" as="geometry" />
        </mxCell>
        <mxCell id="Aq2oGUDE9ACcBMB9Xu7W-42" value="" style="group" vertex="1" connectable="0" parent="1">
          <mxGeometry x="760" y="370" width="100" height="40" as="geometry" />
        </mxCell>
        <mxCell id="Aq2oGUDE9ACcBMB9Xu7W-37" value="" style="rounded=0;whiteSpace=wrap;html=1;" vertex="1" parent="Aq2oGUDE9ACcBMB9Xu7W-42">
          <mxGeometry width="100" height="40" as="geometry" />
        </mxCell>
        <mxCell id="Aq2oGUDE9ACcBMB9Xu7W-38" value="" style="rounded=0;whiteSpace=wrap;html=1;strokeColor=default;fillColor=#030303;" vertex="1" parent="Aq2oGUDE9ACcBMB9Xu7W-42">
          <mxGeometry x="10" width="13.333333333333332" height="40" as="geometry" />
        </mxCell>
        <mxCell id="Aq2oGUDE9ACcBMB9Xu7W-39" value="" style="rounded=0;whiteSpace=wrap;html=1;strokeColor=default;fillColor=#030303;" vertex="1" parent="Aq2oGUDE9ACcBMB9Xu7W-42">
          <mxGeometry x="33.33333333333333" width="13.333333333333332" height="40" as="geometry" />
        </mxCell>
        <mxCell id="Aq2oGUDE9ACcBMB9Xu7W-40" value="" style="rounded=0;whiteSpace=wrap;html=1;strokeColor=default;fillColor=#030303;" vertex="1" parent="Aq2oGUDE9ACcBMB9Xu7W-42">
          <mxGeometry x="60" width="13.333333333333332" height="40" as="geometry" />
        </mxCell>
        <mxCell id="Aq2oGUDE9ACcBMB9Xu7W-41" value="" style="rounded=0;whiteSpace=wrap;html=1;strokeColor=default;fillColor=#030303;" vertex="1" parent="Aq2oGUDE9ACcBMB9Xu7W-42">
          <mxGeometry x="80" width="13.333333333333332" height="40" as="geometry" />
        </mxCell>
        <mxCell id="Aq2oGUDE9ACcBMB9Xu7W-44" value="" style="endArrow=classic;html=1;rounded=0;" edge="1" parent="1">
          <mxGeometry width="50" height="50" relative="1" as="geometry">
            <mxPoint x="200" y="110" as="sourcePoint" />
            <mxPoint x="200" y="50" as="targetPoint" />
          </mxGeometry>
        </mxCell>
        <mxCell id="Aq2oGUDE9ACcBMB9Xu7W-45" value="" style="endArrow=classic;html=1;rounded=0;" edge="1" parent="1">
          <mxGeometry width="50" height="50" relative="1" as="geometry">
            <mxPoint x="690" y="590" as="sourcePoint" />
            <mxPoint x="750" y="590" as="targetPoint" />
          </mxGeometry>
        </mxCell>
        <mxCell id="Aq2oGUDE9ACcBMB9Xu7W-46" value="X" style="text;html=1;align=center;verticalAlign=middle;whiteSpace=wrap;rounded=0;" vertex="1" parent="1">
          <mxGeometry x="710" y="555" width="60" height="30" as="geometry" />
        </mxCell>
        <mxCell id="Aq2oGUDE9ACcBMB9Xu7W-47" value="Y" style="text;html=1;align=center;verticalAlign=middle;whiteSpace=wrap;rounded=0;" vertex="1" parent="1">
          <mxGeometry x="200" y="60" width="60" height="30" as="geometry" />
        </mxCell>
      </root>
    </mxGraphModel>
  </diagram>
</mxfile>
